<?xml version="1.0" encoding="UTF-8" standalone="no"?>
<svg
   xmlns:osb="http://www.openswatchbook.org/uri/2009/osb"
   xmlns:dc="http://purl.org/dc/elements/1.1/"
   xmlns:cc="http://creativecommons.org/ns#"
   xmlns:rdf="http://www.w3.org/1999/02/22-rdf-syntax-ns#"
   xmlns:svg="http://www.w3.org/2000/svg"
   xmlns="http://www.w3.org/2000/svg"
   xmlns:sodipodi="http://sodipodi.sourceforge.net/DTD/sodipodi-0.dtd"
   xmlns:inkscape="http://www.inkscape.org/namespaces/inkscape"
   height="48"
   width="48"
   version="1.1"
   viewBox="0 0 13.546667 13.546667"
   id="svg2"
   inkscape:version="0.48.5 r10040"
   sodipodi:docname="telegram.svg">
  <sodipodi:namedview
     pagecolor="#5e5e5e"
     bordercolor="#666666"
     borderopacity="1"
     objecttolerance="10"
     gridtolerance="10"
     guidetolerance="10"
     inkscape:pageopacity="1"
     inkscape:pageshadow="2"
     inkscape:window-width="1366"
     inkscape:window-height="714"
     id="namedview23"
     showgrid="false"
     inkscape:zoom="6.9532167"
     inkscape:cx="16.869994"
     inkscape:cy="32.900031"
     inkscape:window-x="0"
     inkscape:window-y="28"
     inkscape:window-maximized="1"
     inkscape:current-layer="g13" />
  <metadata
     id="metadata4">
    <rdf:RDF>
      <cc:Work
         rdf:about="">
        <dc:format>image/svg+xml</dc:format>
        <dc:type
           rdf:resource="http://purl.org/dc/dcmitype/StillImage" />
        <dc:title></dc:title>
      </cc:Work>
    </rdf:RDF>
  </metadata>
  <defs
     id="defs6">
    <linearGradient
       id="linearGradient5374"
       osb:paint="solid">
      <stop
         style="stop-color:#000034;stop-opacity:1;"
         offset="0"
         id="stop5376" />
    </linearGradient>
    <linearGradient
       id="linearGradient3922"
       osb:paint="solid">
      <stop
         style="stop-color:#000034;stop-opacity:1;"
         offset="0"
         id="stop3924" />
    </linearGradient>
    <linearGradient
       id="linearGradient3004"
       gradientUnits="userSpaceOnUse"
       x2="0"
       gradientTransform="matrix(1.10525 0 0 1.10525 -134.27874 -295.76183)"
       y1="279.1"
       y2="268.33">
      <stop
         stop-color="#ae2434"
         offset="0"
         id="stop9" />
      <stop
         stop-color="#d67038"
         offset="1"
         id="stop11" />
    </linearGradient>
    <clipPath
       id="clipPath-658939496">
      <g
         transform="translate(0,-1004.3622)"
         id="g17">
        <rect
           style="fill:#1890d0"
           rx="4"
           y="1005.36"
           x="1"
           height="46"
           width="46"
           id="rect19" />
      </g>
    </clipPath>
  </defs>
  <g
     id="g13"
     fill-rule="evenodd">
    <rect
       rx="5.9260001"
       height="11.853"
       width="11.853"
       y="0.847"
       x="0.88758874"
       id="rect17"
       style="fill:#1a90c7;fill-opacity:1" />
    <g
       id="g7147"
       transform="matrix(0.02086799,0,0,0.02086799,1.4040807,-0.39787302)">
      <path
         style="fill:#dca823;fill-opacity:1;fill-rule:nonzero;stroke:none"
         d="M 339.81394,173.72833 C 313.77231,218.64703 256,228.2911 256,228.2911 c 0,0 -21.13444,-53.55184 4.90718,-98.47054 26.04163,-44.918718 89.39791,-64.194493 89.39791,-64.194493 0,0 15.55047,63.183533 -10.49115,108.102263 z"
         id="path7084"
         inkscape:connector-curvature="0"
         sodipodi:nodetypes="scscs" />
      <path
         sodipodi:nodetypes="scscs"
         inkscape:connector-curvature="0"
         id="path7086"
         d="M 172.18606,173.72833 C 198.22768,218.64703 256,228.2911 256,228.2911 c 0,0 21.13444,-53.55184 -4.90719,-98.47054 -26.04162,-44.918718 -89.3979,-64.194493 -89.3979,-64.194493 0,0 -15.55048,63.183533 10.49115,108.102263 z"
         style="fill:#dca823;fill-opacity:1;fill-rule:nonzero;stroke:none" />
      <path
         id="rect7115"
         d="M 303.59375,87.875 C 287.69244,98.04181 271.3138,111.86072 260.90625,129.8125 234.86463,174.7312 256,228.28125 256,228.28125 c 0,0 57.77087,-9.6438 83.8125,-54.5625 6.68854,-11.53694 10.61195,-24.27704 12.78125,-36.84375 l -49,-49 z"
         style="fill:#000000;fill-opacity:0.23529412;fill-rule:nonzero;stroke:none"
         inkscape:connector-curvature="0" />
      <path
         sodipodi:nodetypes="scscs"
         inkscape:connector-curvature="0"
         id="path7081"
         d="M 301.14322,139.05006 C 301.14322,190.9717 256,228.2911 256,228.2911 c 0,0 -45.1432,-35.72892 -45.1432,-87.65057 C 210.8568,88.71889 256,40.266197 256,40.266197 c 0,0 45.14322,46.862219 45.14322,98.783863 z"
         style="fill:#e2b84a;fill-opacity:1;fill-rule:nonzero;stroke:none" />
    </g>
    <g
       transform="matrix(0.03108658,0,0,0.03108658,-1.0699319,-2.0060187)"
       id="g3374">
      <path
         sodipodi:type="arc"
         style="color:#000000;fill:#f7e52f;fill-opacity:1;fill-rule:nonzero;stroke:none;stroke-width:3.33824492;marker:none;visibility:visible;display:inline;overflow:visible;enable-background:accumulate"
         id="path4209"
         sodipodi:cx="76.75"
         sodipodi:cy="40.75"
         sodipodi:rx="10.75"
         sodipodi:ry="10.75"
         d="M 87.5,40.75 C 87.5,46.687061 82.687061,51.5 76.75,51.5 70.812939,51.5 66,46.687061 66,40.75 66,34.812939 70.812939,30 76.75,30 82.687061,30 87.5,34.812939 87.5,40.75 z"
         transform="matrix(1.1364201,4.752879,4.5463868,-1.7331767,-116.4855,-16.098022)" />
      <path
         transform="translate(-3.0883484,32)"
         d="m 355.76311,299.86795 c 0,13.42427 -43.28277,24.3068 -96.67476,24.3068 -53.392,0 -96.67476,-10.88253 -96.67476,-24.3068 0,-13.42427 43.28276,-24.30679 96.67476,-24.30679 53.39199,0 96.67476,10.88252 96.67476,24.30679 z"
         sodipodi:ry="24.306795"
         sodipodi:rx="96.674759"
         sodipodi:cy="299.86795"
         sodipodi:cx="259.08835"
         id="path7066"
         style="fill:#f7e52f;fill-opacity:1;fill-rule:nonzero;stroke:none"
         sodipodi:type="arc" />
      <path
         transform="matrix(1.1364201,4.752879,4.5463868,-1.7331767,83.5145,-16.098022)"
         d="M 87.5,40.75 C 87.5,46.687061 82.687061,51.5 76.75,51.5 70.812939,51.5 66,46.687061 66,40.75 66,34.812939 70.812939,30 76.75,30 82.687061,30 87.5,34.812939 87.5,40.75 z"
         sodipodi:ry="10.75"
         sodipodi:rx="10.75"
         sodipodi:cy="40.75"
         sodipodi:cx="76.75"
         id="path7075"
         style="color:#000000;fill:#f7e52f;fill-opacity:1;fill-rule:nonzero;stroke:none;stroke-width:3.33824492;marker:none;visibility:visible;display:inline;overflow:visible;enable-background:accumulate"
         sodipodi:type="arc" />
    </g>
    <g
       transform="matrix(0.03108658,0,0,0.03108658,-1.0699319,-2.0060187)"
       id="g3379">
      <g
         id="g3390">
        <g
           id="g3383">
          <path
             transform="matrix(-1.0298057,0.27549343,0.16149017,1.0846202,101.29082,549.36536)"
             d="m -62.755724,-226.57303 c 0,14.35177 -11.634406,25.98618 -25.986174,25.98618 -14.351762,0 -25.986172,-11.63441 -25.986172,-25.98618 0,-14.35177 11.63441,-25.98617 25.986172,-25.98617 14.351768,0 25.986174,11.6344 25.986174,25.98617 z"
             sodipodi:ry="25.986174"
             sodipodi:rx="25.986174"
             sodipodi:cy="-226.57303"
             sodipodi:cx="-88.741898"
             id="path4211"
             style="color:#000000;fill:#1c202a;fill-opacity:1;fill-rule:evenodd;stroke:none;stroke-width:9.69999981;marker:none;visibility:visible;display:inline;overflow:visible;enable-background:accumulate"
             sodipodi:type="arc" />
        </g>
        <path
           sodipodi:type="arc"
           style="color:#000000;fill:#1c202a;fill-opacity:1;fill-rule:evenodd;stroke:none;stroke-width:9.69999981;marker:none;visibility:visible;display:inline;overflow:visible;enable-background:accumulate"
           id="path7077"
           sodipodi:cx="-88.741898"
           sodipodi:cy="-226.57303"
           sodipodi:rx="25.986174"
           sodipodi:ry="25.986174"
           d="m -62.755724,-226.57303 c 0,14.35177 -11.634406,25.98618 -25.986174,25.98618 -14.351762,0 -25.986172,-11.63441 -25.986172,-25.98618 0,-14.35177 11.63441,-25.98617 25.986172,-25.98617 14.351768,0 25.986174,11.6344 25.986174,25.98617 z"
           transform="matrix(-1.0298057,0.27549343,0.16149017,1.0846202,301.29082,549.36536)" />
      </g>
    </g>
    <g
       id="g7062"
       transform="matrix(0.02512666,0,0,0.02512666,0.3460641,0.39633275)">
      <path
         inkscape:connector-curvature="0"
         id="path6287"
         d="m 260.32829,294.68112 c -42.37451,1.36693 -97.99695,20.81183 -99.78745,26.83166 -2.51485,8.45509 23.10611,107.0506 99.78745,149.00458 0.0143,-0.0118 0.0245,-0.0274 0.0389,-0.0389 l 0,-175.79757 c -0.0128,4e-4 -0.0257,-4.2e-4 -0.0389,0 z"
         style="fill:#343432;fill-opacity:1;stroke:none" />
      <path
         inkscape:connector-curvature="0"
         style="fill:#343432;fill-opacity:1;stroke:none"
         d="m 258.79031,294.68117 c 42.37451,1.36693 97.99695,20.81183 99.78745,26.83166 2.51485,8.45509 -23.10611,107.0506 -99.78745,149.00458 -0.0143,-0.0118 -0.0245,-0.0274 -0.0389,-0.0386 l 0,-175.79758 c 0.0128,4.1e-4 0.0257,-4.2e-4 0.0389,0 z"
         id="path6292" />
      <path
         style="color:#000000;fill:#ffffff;fill-opacity:1;stroke:none;stroke-width:11.23198509000000023;marker:none;visibility:visible;display:inline;overflow:visible;enable-background:accumulate"
         d="m 393.13639,6.1655555 -1.32494,21.3933905 -24.31216,-0.0302 -2.72694,24.86122 25.50298,0 -4.35168,57.024064 -22.53079,0 -2.13462,21.35453 23.28429,0 -1.56154,21.31333 25.68678,0 1.67208,-21.31963 34.58181,0 -1.64523,21.40259 31.43823,0 1.64523,-21.38042 20.21001,0 2.36663,-21.31989 -21.22042,0 4.26702,-57.099834 21.58764,0 2.53767,-24.84086 -22.59217,0 1.46697,-21.4159205 -31.45758,0.12439 -1.52915,21.2293205 -34.62604,0.0621 1.30273,-21.3951705 -25.53681,0.0368 z m 22.85153,46.1992005 34.59982,0 -4.38444,57.099804 -34.62053,0 4.40515,-57.099804 z"
         id="rect5703"
         sodipodi:nodetypes="cccccccccccccccccccccccccccccccccc"
         inkscape:connector-curvature="0" />
    </g>
  </g>
</svg>
