<?xml version="1.0" encoding="UTF-8" standalone="no"?>
<svg
   xmlns:dc="http://purl.org/dc/elements/1.1/"
   xmlns:cc="http://creativecommons.org/ns#"
   xmlns:rdf="http://www.w3.org/1999/02/22-rdf-syntax-ns#"
   xmlns:svg="http://www.w3.org/2000/svg"
   xmlns="http://www.w3.org/2000/svg"
   xmlns:sodipodi="http://sodipodi.sourceforge.net/DTD/sodipodi-0.dtd"
   xmlns:inkscape="http://www.inkscape.org/namespaces/inkscape"
   width="512pt"
   height="512pt"
   viewBox="0 0 512 512"
   version="1.1"
   id="svg3172"
   inkscape:version="0.48.5 r10040"
   sodipodi:docname="nautilus.svg">
  <metadata
     id="metadata3192">
    <rdf:RDF>
      <cc:Work
         rdf:about="">
        <dc:format>image/svg+xml</dc:format>
        <dc:type
           rdf:resource="http://purl.org/dc/dcmitype/StillImage" />
        <dc:title></dc:title>
      </cc:Work>
    </rdf:RDF>
  </metadata>
  <defs
     id="defs3190" />
  <sodipodi:namedview
     pagecolor="#ffffff"
     bordercolor="#666666"
     borderopacity="1"
     objecttolerance="10"
     gridtolerance="10"
     guidetolerance="10"
     inkscape:pageopacity="0"
     inkscape:pageshadow="2"
     inkscape:window-width="1366"
     inkscape:window-height="703"
     id="namedview3188"
     showgrid="false"
     inkscape:zoom="0.52149125"
     inkscape:cx="551.71647"
     inkscape:cy="214.34536"
     inkscape:window-x="0"
     inkscape:window-y="28"
     inkscape:window-maximized="1"
     inkscape:current-layer="svg3172" />
  <rect
     style="fill:#60b1e9;fill-opacity:1;stroke:none"
     id="rect3494"
     width="477.09332"
     height="466.35489"
     x="21.502987"
     y="25.029453" />
  <path
     style="fill:#ffffff;fill-opacity:1;fill-rule:evenodd"
     d="m 260.04659,129.41668 c -16.4448,0 -29.74158,12.82347 -29.73669,28.62244 -0.001,11.92054 9.0302,21.764 19.83006,26.04998 l 0,24.58777 -45.84936,0 c -1.974,0 -3.71739,2.52121 -3.71739,4.54178 l 0,10.73237 c 0,2.02194 1.66474,4.99727 3.71739,4.54024 l 45.84936,0 0,115.5915 c 0,3.67553 -7.61684,3.75277 -11.23423,4.13746 -5.29873,0 -8.52034,-1.33303 -13.59025,-2.6837 -11.45011,-3.22178 -22.3804,-7.68781 -32.87296,-13.08116 -4.41784,-2.3603 -8.73085,-4.65477 -12.6611,-7.71366 -1.695,-1.39097 -3.66564,-3.40343 -3.48537,-5.70258 0.2256,-1.7388 1.14459,-3.59516 3.13624,-3.91388 1.79511,-0.2896 3.40809,0.65996 4.99555,1.23175 1.3685,0.5635 2.3091,-1.02735 2.09008,-2.12064 -0.2239,-2.88495 -1.23482,-5.55426 -2.78715,-8.05 -3.22968,-5.11324 -8.19973,-8.91757 -13.35819,-12.18741 -5.50774,-3.38584 -11.37939,-7.10825 -14.86834,-12.52258 -0.69365,-0.99837 -1.46508,-2.65661 -3.02034,-2.12376 -2.16205,0.67463 -3.35519,2.71452 -4.41438,4.47112 -2.97876,5.45631 -4.46461,11.34393 -5.80751,17.32998 -1.10582,4.76378 -1.31532,9.79356 -0.93183,14.64624 0.40216,4.85722 0.74377,9.77742 2.78827,14.31114 1.2865,2.98018 3.55179,5.38381 5.80747,7.71516 1.43934,-1.46198 2.94147,-3.03801 4.41445,-4.47115 1.90926,-1.84639 4.29236,-3.04264 7.08561,-2.68372 3.8013,0.46857 7.23514,2.6887 10.22196,4.80757 4.2083,3.14908 8.14169,6.44478 12.42912,9.50375 6.78444,4.98948 14.26641,8.64393 21.95399,12.18616 6.4045,2.86238 12.9847,5.72192 19.63076,8.04998 1.18986,0.50059 2.50516,0.46857 3.71733,0.88863 11.96091,4.78821 22.03779,10.36199 30.31779,20.34875 0.001,0.1448 -0.001,0.43142 0,0.55064 0.1122,-0.1129 0.25621,-0.2268 0.35138,-0.33656 0.1122,0.1129 0.2572,0.2268 0.35254,0.33656 0.005,-0.2896 -0.005,-0.6151 0,-0.89842 8.25422,-9.87245 18.4294,-15.25316 30.31782,-20.0139 1.21083,-0.4185 2.52746,-0.40089 3.71732,-0.88866 6.64608,-2.32961 13.22627,-5.18741 19.63081,-8.04999 7.68635,-3.54207 15.1695,-7.19667 21.95395,-12.18607 4.28743,-3.05898 8.2208,-6.35469 12.42913,-9.50382 2.98672,-2.11875 6.4207,-4.33582 10.22191,-4.80751 2.79324,-0.35586 5.17763,0.84196 7.08561,2.68233 1.47305,1.43445 2.97392,3.00743 4.41328,4.47255 2.25692,-2.33132 4.52219,-4.735 5.80866,-7.71511 2.04323,-4.53376 2.38903,-9.45396 2.78842,-14.30975 0.3851,-4.85408 0.177,-9.88378 -0.93041,-14.64769 -1.34285,-5.98601 -2.82877,-11.87222 -5.80742,-17.33002 -1.05938,-1.75818 -2.25236,-3.7964 -4.41451,-4.47103 -1.55508,-0.5312 -2.32505,1.12219 -3.0203,2.12516 -3.48897,5.41287 -9.3606,9.13523 -14.86834,12.52106 -5.15846,3.26992 -10.12857,7.07429 -13.35817,12.18759 -1.55214,2.49555 -2.56659,5.16492 -2.78711,8.04999 -0.2239,1.09323 0.72313,2.69041 2.0901,2.12368 1.58732,-0.57796 3.20036,-1.50217 4.99552,-1.2317 1.99162,0.32352 2.90761,2.1703 3.1363,3.91389 0.1773,2.29916 -1.79034,4.31007 -3.48536,5.70111 -3.93027,3.06049 -8.2433,5.358 -12.66115,7.71509 -10.49251,5.39343 -21.4228,9.85954 -32.87299,13.0812 -5.06989,1.35074 -8.2915,2.65334 -13.59013,2.6823 -4.553,0.77602 -11.23314,-1.59716 -11.23314,-4.13612 l 0,-115.59146 45.84821,0 c 1.7193,0 3.7174,-2.39579 3.7174,-4.54023 l 0,-10.73384 c 0,-2.08341 -1.78887,-4.11354 -3.7174,-4.5418 l -45.84821,0 0,-24.58633 c 10.79869,-4.28591 19.83227,-14.12941 19.8289,-26.04989 0.001,-15.79892 -13.29188,-28.62251 -29.7367,-28.62251 z m -0.5798,13.97633 c 7.98262,0 14.52222,6.08254 14.51922,13.75115 0.001,7.66997 -6.5366,13.97624 -14.51922,13.97624 -7.98379,0 -14.63818,-6.30627 -14.63633,-13.97624 -0.001,-7.66861 6.65254,-13.75115 14.63633,-13.75115 z"
     id="path18"
     inkscape:connector-curvature="0"
     sodipodi:nodetypes="ccccsssscscccccccccccccccccccccccccccccccccccccccccccccccccccccscsssscccccscscs" />
</svg>
